<svg version="1.1" xmlns="http://www.w3.org/2000/svg" xmlns:xlink="http://www.w3.org/1999/xlink">

    <symbol id="logo" viewBox="0 0 344 106" fill="none" xmlns="http://www.w3.org/2000/svg">
        <path d="M343.23 103.6C336.27 105.15 329.79 105.34 323.34 104.68C310.51 103.36 298.69 99.04 288.4 91.26C281.52 86.06 275.12 80.2 268.57 74.57C264.28 70.89 260.16 67.02 255.83 63.38C255.14 62.8 253.49 62.52 252.77 62.94C249.42 64.9 246.23 67.13 243 69.29C241.16 70.52 240.66 72.29 240.68 74.45C240.76 83.51 240.66 92.58 240.76 101.64C240.78 103.69 240.18 104.44 238.1 104.39C233.55 104.28 229 104.36 223.95 104.36C224.65 103.47 224.99 102.95 225.41 102.51C227.42 100.43 228.37 97.99 228.36 95.08C228.33 66.56 228.33 38.04 228.35 9.52001C228.35 5.90001 226.55 3.28 223.44 0.880005C224.51 0.750005 225.05 0.630005 225.58 0.630005C240.89 0.640005 256.2 0.620005 271.52 0.710005C279.84 0.760005 288 1.94 295.3 6.17C303.96 11.18 308.59 18.65 308.2 28.95C307.92 36.22 306.41 42.94 300.94 48.23C296.12 52.89 290.06 54.34 283.67 55.05C278.8 55.59 273.96 56.29 269.11 56.96C268.5 57.04 267.93 57.37 267.15 57.65C267.58 58.25 267.79 58.73 268.15 59.01C275.61 64.98 283.19 70.79 290.53 76.9C305.23 89.14 322.14 96.94 340.4 102.11C340.96 102.27 341.49 102.52 342.01 102.77C342.27 102.89 342.51 103.1 343.23 103.6ZM241.1 68.5C241.8 68.17 242.22 68.08 242.5 67.83C247.37 63.52 253.05 60.54 259.09 58.37C266.35 55.77 273.83 53.8 281.12 51.29C288.25 48.84 294.1 44.66 295.01 36.57C295.61 31.25 295.49 25.75 294.87 20.42C294.5 17.18 293.06 13.8 291.25 11.05C286.77 4.25 279.72 2.14 271.98 2.05C262.5 1.94 253.02 2.06 243.54 1.97C241.35 1.95 240.67 2.72 240.67 4.87C240.73 25.15 240.7 45.42 240.72 65.7C240.73 66.57 240.95 67.42 241.1 68.5Z" fill="white"/>
        <path d="M165.27 -8.03894e-06C192.94 -0.310008 218.11 22.63 218.01 52.83C217.91 82.14 194.58 105.31 165.62 105.68C136.47 106.06 112.55 81.68 112.6 52.69C112.65 23.71 136.44 -0.080008 165.27 -8.03894e-06ZM205.55 50.17C205.19 47.63 204.76 42.58 203.74 37.64C201.61 27.35 197.29 18.11 189.45 10.81C177.74 -0.0900068 161.69 -2.17001 147.69 5.60999C137.31 11.38 131.26 20.7 127.75 31.72C124.19 42.89 123.52 54.28 125.76 65.87C127.47 74.67 130.56 82.82 136.14 89.86C142.78 98.24 151.38 103.61 162.14 104.4C175.33 105.36 185.99 100.04 193.98 89.64C202.32 78.77 205.21 66.12 205.55 50.17Z" fill="white"/>
        <path d="M22.67 1.09998C17.84 4.29998 17.36 8.55998 17.36 13.14C17.41 41.83 17.38 70.52 17.39 99.22C17.39 103.54 17.4 103.58 21.62 103.52C28.94 103.42 36.29 103.67 43.56 103.03C53.53 102.14 62.2 97.88 69.55 91.04C69.84 90.77 70.17 90.54 71.03 89.84C70.64 90.93 70.53 91.42 70.31 91.86C68.45 95.48 66.7 99.16 64.63 102.65C64.03 103.66 62.52 104.76 61.41 104.76C41.27 104.87 21.13 104.82 0.99 104.8C0.77 104.8 0.55 104.7 0.07 104.58C0.73 103.96 1.26 103.49 1.76 102.99C3.93 100.86 5.15 98.32 5.15 95.22C5.14 66.94 5.15 38.66 5.13 10.38C5.13 6.62998 3.49 3.66998 0 1.09998C7.66 1.09998 14.77 1.09998 22.67 1.09998Z" fill="white"/>
        <path d="M85.55 0.76001C92.46 0.76001 99.36 0.76001 106.7 0.76001C105.51 2.13001 104.22 3.03001 103.81 4.24001C102.97 6.70001 102.11 9.33001 102.1 11.89C101.98 39.33 102.05 66.77 102 94.22C101.99 98.35 103.33 101.8 107.06 104.81C99.32 104.81 92.31 104.81 84.64 104.81C90.01 100.87 89.85 95.57 89.84 90.2C89.78 64.42 89.78 38.64 89.86 12.86C89.86 8.33001 89.12 4.26001 85.55 0.76001Z" fill="white"/>
        <path d="M336.74 94.31C332.57 92.78 328.98 91.59 325.53 90.09C324.93 89.83 324.65 88.24 324.65 87.27C324.58 77.96 324.61 68.65 324.61 59.34C324.61 44.79 324.63 30.25 324.63 15.7C324.63 7.41999 324.63 7.41999 320.14 0.799988C327.22 0.799988 334.13 0.799988 341.62 0.799988C340.75 1.66999 340.12 2.23999 339.57 2.86999C337.57 5.15999 336.71 7.83999 336.71 10.89C336.74 36.99 336.74 63.09 336.74 89.19C336.74 90.64 336.74 92.1 336.74 94.31Z" fill="white"/>
    </symbol>

    <symbol id="burger" viewBox="0 0 43 13" fill="none" xmlns="http://www.w3.org/2000/svg">
        <path d="M0 1H42.5" stroke="white"/>
        <path d="M0 12.5H42.5" stroke="white"/>
    </symbol>

    <symbol id="arrow-hero" viewBox="0 0 22 12" fill="none" xmlns="http://www.w3.org/2000/svg">
        <path d="M1 1L11 11L21 1" stroke="white"/>
    </symbol>

    <symbol id="quote" viewBox="0 0 65 55" fill="none" xmlns="http://www.w3.org/2000/svg">
        <path opacity="0.2" d="M49.4737 55C44.386 55 40.7018 53.2372 38.4211 49.7115C36.1404 46.1859 35 42.1314 35 37.5481C35 34.9038 35.3509 31.9952 36.0526 28.8221C36.7544 25.649 38.0702 22.476 40 19.3029C42.1053 15.9535 45 12.6923 48.6842 9.51923C52.3684 6.16988 57.2807 2.9968 63.4211 0L65 2.37981C61.4912 5.72916 58.6842 8.63782 56.579 11.1058C54.6491 13.5737 53.1579 15.8654 52.1053 17.9808C51.0526 20.0961 50.3509 22.0353 50 23.7981C49.8246 25.5609 49.7368 27.4119 49.7368 29.351C49.7368 30.7612 50.1754 31.8189 51.0526 32.524C51.9298 33.0529 52.8947 33.758 53.9474 34.6394C55.5263 35.6971 56.9298 36.7548 58.1579 37.8125C59.5614 38.6939 60.2632 40.633 60.2632 43.6298C60.2632 46.8029 59.2105 49.5353 57.1053 51.8269C55 53.9423 52.4561 55 49.4737 55ZM14.7368 55C9.64912 55 5.87719 53.2372 3.42105 49.7115C1.14035 46.1859 0 42.1314 0 37.5481C0 34.9038 0.350877 32.0833 1.05263 29.0865C1.75439 25.9135 3.1579 22.6522 5.26316 19.3029C7.36842 15.9535 10.2632 12.6923 13.9474 9.51923C17.6316 6.16988 22.5439 2.9968 28.6842 0L30.2632 2.37981C26.7544 5.72916 23.9474 8.63782 21.8421 11.1058C19.9123 13.5737 18.4211 15.8654 17.3684 17.9808C16.3158 20.0961 15.614 22.0353 15.2632 23.7981C15.0877 25.5609 15 27.4119 15 29.351C15 30.7612 15.3509 31.8189 16.0526 32.524C16.9298 33.2292 17.8947 33.8461 18.9474 34.375C20.3509 35.2564 21.7544 36.3141 23.1579 37.5481C24.7368 38.6058 25.5263 40.633 25.5263 43.6298C25.5263 46.8029 24.4737 49.5353 22.3684 51.8269C20.4386 53.9423 17.8947 55 14.7368 55Z" fill="white"/>
    </symbol>

    <symbol id="close" viewBox="0 0 32 32" fill="none" xmlns="http://www.w3.org/2000/svg">
        <path d="M1 0.999969L31.052 31.052" stroke="white"/>
        <path d="M1 31L31.052 0.947932" stroke="white"/>
    </symbol>

    <symbol id="slider-arrow" viewBox="0 0 23 7" fill="none" xmlns="http://www.w3.org/2000/svg">
        <path d="M22.3238 3.57078L1.21531 3.57078M1.21531 3.57078L3.93898 0.847107M1.21531 3.57078L3.93898 6.29445" stroke="white"/>
    </symbol>


    <symbol id="fast-logo" viewBox="0 0 2027 624" fill="none" xmlns="http://www.w3.org/2000/svg">
        <path d="M2026.45 611.661C1985.36 620.812 1947.1 621.934 1909.02 618.037C1833.27 610.244 1763.48 584.738 1702.73 538.805C1662.11 508.103 1624.32 473.506 1585.65 440.266C1560.32 418.539 1536 395.69 1510.44 374.199C1506.36 370.775 1496.62 369.122 1492.37 371.602C1472.59 383.173 1453.76 396.34 1434.69 409.092C1423.82 416.354 1420.87 426.804 1420.99 439.557C1421.46 493.048 1420.87 546.598 1421.46 600.089C1421.58 612.192 1418.04 616.62 1405.76 616.325C1378.89 615.675 1352.03 616.148 1322.21 616.148C1326.35 610.893 1328.35 607.823 1330.83 605.225C1342.7 592.945 1348.31 578.539 1348.25 561.358C1348.07 392.974 1348.07 224.59 1348.19 56.2067C1348.19 34.834 1337.56 19.3654 1319.2 5.19562C1325.52 4.42809 1328.71 3.7196 1331.84 3.7196C1422.23 3.77865 1512.62 3.66056 1603.07 4.19193C1652.19 4.48713 1700.37 11.4539 1743.47 36.4281C1794.6 66.0074 1821.93 110.111 1819.63 170.923C1817.98 213.845 1809.06 253.52 1776.77 284.753C1748.31 312.266 1712.53 320.827 1674.8 325.018C1646.05 328.207 1617.48 332.34 1588.84 336.295C1585.24 336.768 1581.87 338.716 1577.27 340.369C1579.81 343.911 1581.05 346.745 1583.17 348.399C1627.22 383.646 1671.97 417.948 1715.31 454.022C1802.1 526.288 1901.93 572.34 2009.74 602.864C2013.05 603.808 2016.18 605.284 2019.25 606.76C2020.78 607.469 2022.2 608.709 2026.45 611.661ZM1423.47 404.428C1427.6 402.48 1430.08 401.948 1431.73 400.472C1460.49 375.026 1494.02 357.432 1529.68 344.62C1572.55 329.269 1616.71 317.638 1659.75 302.819C1701.84 288.354 1736.38 263.675 1741.76 215.911C1745.3 184.502 1744.59 152.03 1740.93 120.561C1738.75 101.432 1730.24 81.4761 1719.56 65.2399C1693.11 25.0923 1651.48 12.6347 1605.79 12.1034C1549.82 11.4539 1493.84 12.1624 1437.87 11.631C1424.94 11.513 1420.93 16.0591 1420.93 28.7528C1421.28 148.487 1421.11 268.162 1421.23 387.897C1421.28 393.033 1422.58 398.052 1423.47 404.428Z" fill="white"/>
        <path d="M975.764 2.01017e-05C1139.13 -1.83024 1287.73 133.609 1287.14 311.911C1286.55 484.959 1148.81 621.756 977.83 623.941C805.727 626.184 664.502 482.243 664.797 311.085C665.092 139.985 805.55 -0.472305 975.764 2.01017e-05ZM1213.58 296.207C1211.45 281.21 1208.92 251.395 1202.89 222.229C1190.32 161.476 1164.81 106.923 1118.52 63.8229C1049.39 -0.531338 954.627 -12.8118 871.97 33.1218C810.686 67.1882 774.967 122.214 754.243 187.277C733.225 253.225 729.269 320.472 742.494 388.9C752.59 440.856 770.834 488.974 803.779 530.539C842.981 580.015 893.756 611.72 957.284 616.384C1035.16 622.052 1098.1 590.642 1145.27 529.24C1194.51 465.063 1211.57 390.376 1213.58 296.207Z" fill="white"/>
        <path d="M133.845 6.49451C105.328 25.3875 102.494 50.5388 102.494 77.5794C102.79 246.967 102.613 416.354 102.672 585.801C102.672 611.306 102.731 611.542 127.646 611.188C170.863 610.598 214.258 612.074 257.181 608.295C316.044 603.041 367.232 577.889 410.627 537.506C412.34 535.911 414.288 534.554 419.365 530.421C417.063 536.856 416.413 539.749 415.114 542.347C404.133 563.72 393.801 585.447 381.579 606.052C378.037 612.015 369.122 618.509 362.568 618.509C243.661 619.159 124.753 618.864 5.84502 618.745C4.54613 618.745 3.24723 618.155 0.413284 617.447C4.30996 613.786 7.43911 611.011 10.3911 608.059C23.203 595.483 30.4059 580.487 30.4059 562.185C30.3469 395.218 30.4059 228.251 30.2878 61.2842C30.2878 39.144 20.6052 21.6679 0 6.49451C45.2251 6.49451 87.2029 6.49451 133.845 6.49451Z" fill="white"/>
        <path d="M505.092 4.48706C545.889 4.48706 586.627 4.48706 629.963 4.48706C622.937 12.5756 615.321 17.8893 612.9 25.0332C607.941 39.5572 602.864 55.0848 602.804 70.1992C602.096 232.207 602.509 394.214 602.214 556.28C602.155 580.664 610.066 601.033 632.089 618.804C586.391 618.804 545.004 618.804 499.72 618.804C531.424 595.542 530.48 564.251 530.421 532.546C530.066 380.339 530.066 228.133 530.539 75.9262C530.539 49.1808 526.17 25.1513 505.092 4.48706Z" fill="white"/>
        <path d="M1988.13 556.812C1963.51 547.779 1942.32 540.753 1921.95 531.897C1918.41 530.362 1916.75 520.974 1916.75 515.247C1916.34 460.28 1916.52 405.314 1916.52 350.347C1916.52 264.443 1916.63 178.598 1916.63 92.6937C1916.63 43.8081 1916.63 43.8081 1890.13 4.72327C1931.93 4.72327 1972.72 4.72327 2016.94 4.72327C2011.81 9.8598 2008.09 13.2251 2004.84 16.9447C1993.03 30.465 1987.96 46.2878 1987.96 64.2952C1988.13 218.391 1988.13 372.487 1988.13 526.583C1988.13 535.144 1988.13 543.764 1988.13 556.812Z" fill="white"/>
    </symbol>


</svg>
