<?xml version="1.0" standalone="no"?>
<!DOCTYPE svg PUBLIC "-//W3C//DTD SVG 20010904//EN"
 "http://www.w3.org/TR/2001/REC-SVG-20010904/DTD/svg10.dtd">
<svg version="1.0" xmlns="http://www.w3.org/2000/svg"
 width="636.000000pt" height="636.000000pt" viewBox="0 0 636.000000 636.000000"
 preserveAspectRatio="xMidYMid meet">
<metadata>
Created by potrace 1.14, written by Peter Selinger 2001-2017
</metadata>
<g transform="translate(0.000000,636.000000) scale(0.100000,-0.100000)"
fill="#000000" stroke="none">
<path d="M1825 6152 c-1 -2 -408 -3 -904 -4 -519 0 -898 -4 -895 -9 3 -5 14
-9 25 -9 51 0 179 -78 252 -153 55 -57 121 -187 133 -262 10 -65 12 -5007 2
-5060 -12 -63 -16 -78 -27 -110 -18 -47 -55 -115 -63 -115 -5 0 -8 -5 -8 -11
0 -17 -131 -139 -150 -139 -6 0 -10 -4 -10 -10 0 -5 -9 -10 -20 -10 -11 0 -20
-5 -20 -11 0 -5 -4 -7 -10 -4 -5 3 -10 2 -10 -3 0 -5 -6 -9 -12 -10 -7 0 -35
-7 -63 -15 -44 -13 168 -14 1730 -16 l1781 -1 15 33 c26 55 140 281 155 307 8
14 33 63 56 110 23 47 46 88 52 92 6 4 7 8 3 8 -4 0 4 20 19 45 14 25 25 48
22 50 -4 4 -98 -54 -108 -66 -10 -12 -280 -137 -310 -143 -8 -2 -22 -6 -30 -9
-38 -16 -195 -57 -290 -76 -107 -21 -146 -27 -235 -37 -27 -2 -66 -8 -85 -11
-19 -3 -394 -7 -832 -9 l-798 -3 0 783 0 783 28 21 c15 11 47 35 72 54 60 45
365 245 431 283 10 6 64 37 120 70 152 90 248 143 307 170 l54 25 71 -57 c40
-32 77 -62 83 -68 7 -5 29 -24 50 -41 45 -36 223 -182 274 -224 19 -16 107
-88 195 -160 88 -72 176 -145 197 -162 20 -16 49 -40 64 -51 15 -12 44 -36 63
-53 20 -16 101 -83 181 -148 80 -65 153 -127 163 -138 9 -11 17 -16 17 -12 0
5 4 4 8 -1 4 -6 61 -55 127 -108 66 -54 131 -108 145 -120 14 -13 75 -63 135
-111 61 -49 115 -94 120 -100 6 -6 26 -23 47 -38 20 -15 42 -33 50 -41 7 -7
36 -30 63 -52 28 -22 52 -42 55 -45 3 -3 28 -24 55 -45 28 -22 52 -42 55 -45
5 -5 103 -86 134 -110 11 -8 35 -29 55 -46 32 -27 286 -235 334 -274 11 -8 24
-19 31 -25 45 -40 111 -94 203 -167 l42 -33 528 2 c290 1 548 2 572 2 l45 1
-45 32 c-24 18 -46 35 -49 38 -3 4 -106 87 -230 186 -124 98 -231 185 -238
192 -8 7 -30 25 -50 40 -21 15 -42 32 -48 37 -6 6 -28 24 -50 41 -255 205
-332 267 -346 279 -10 8 -51 41 -92 73 -41 33 -80 65 -88 71 -7 6 -33 27 -58
47 -25 20 -54 43 -65 52 -11 10 -99 79 -194 156 -96 76 -181 145 -190 152 -9
7 -54 43 -101 80 -47 38 -87 70 -90 74 -3 3 -21 17 -42 32 -20 15 -42 33 -50
40 -7 7 -34 29 -58 48 -25 19 -52 40 -60 47 -8 6 -53 42 -100 79 -47 38 -86
72 -88 76 -2 4 -10 8 -17 8 -7 0 -15 3 -17 8 -1 4 -25 25 -53 47 -27 22 -52
42 -55 45 -3 3 -36 30 -75 60 -38 30 -74 60 -78 67 -4 7 -13 13 -20 13 -7 0
-25 13 -42 28 -16 15 -61 52 -100 82 -38 30 -77 60 -85 67 -8 8 -33 27 -55 44
-22 16 -47 35 -55 42 -93 76 -297 227 -383 283 l-108 71 33 8 c18 4 38 9 43
10 14 4 83 15 125 21 58 9 139 14 260 19 294 10 436 21 565 40 22 4 54 9 70
11 17 3 48 10 70 16 22 6 53 12 69 15 41 7 189 60 263 94 34 16 64 29 67 29 8
0 109 63 166 104 56 40 136 111 174 155 12 12 30 33 41 46 11 12 27 32 35 45
8 12 21 28 28 36 6 7 12 16 12 20 0 4 11 21 23 38 38 50 148 289 155 336 0 3
3 12 6 20 5 17 18 68 22 90 39 213 44 259 49 470 3 164 0 194 -39 385 -16 75
-119 325 -138 333 -5 2 -8 8 -8 14 0 10 -75 119 -115 167 -67 82 -244 245
-320 297 -96 65 -247 145 -355 186 -36 14 -74 29 -85 33 -11 4 -24 9 -30 10
-5 2 -49 15 -97 29 -48 15 -95 29 -105 31 -127 28 -263 55 -305 60 -28 4 -59
8 -69 10 -10 2 -49 7 -86 10 -37 4 -79 9 -93 13 -24 6 -1489 10 -1495 4z
m1037 -297 c239 -4 404 -18 478 -40 8 -2 26 -6 40 -9 36 -7 111 -23 140 -31
14 -3 30 -7 37 -9 7 -1 16 -5 19 -9 4 -4 15 -7 25 -7 44 0 367 -147 377 -172
2 -4 8 -8 14 -8 25 0 179 -134 253 -221 73 -85 172 -285 189 -379 3 -14 5 -25
6 -25 1 0 3 -11 6 -25 2 -14 7 -41 10 -60 4 -19 8 -46 10 -60 5 -47 5 -265 0
-300 -3 -19 -8 -57 -12 -85 -10 -76 -10 -77 -18 -122 -4 -24 -8 -46 -8 -50 0
-5 -4 -14 -10 -20 -6 -7 -8 -13 -5 -13 15 0 -83 -308 -125 -395 -86 -176 -266
-338 -514 -461 -71 -36 -137 -66 -145 -67 -7 -2 -18 -5 -24 -8 -10 -6 -82 -31
-100 -35 -28 -6 -334 -86 -361 -95 -17 -5 -41 -11 -52 -14 -55 -10 -502 -155
-559 -181 -17 -8 -36 -14 -42 -14 -6 0 -19 -4 -29 -9 -9 -6 -48 -22 -87 -37
-135 -52 -430 -186 -445 -203 -3 -3 -25 -17 -50 -30 -25 -14 -48 -29 -51 -34
-3 -5 -10 -9 -15 -10 -14 -1 -250 -148 -361 -225 -10 -6 -52 -34 -93 -62 -88
-58 -119 -80 -136 -98 -7 -6 -17 -12 -23 -12 -8 0 -10 495 -8 1718 1 944 5
1724 8 1734 12 40 64 107 102 132 82 52 87 53 731 54 330 1 601 4 604 7 3 2 9
2 13 -1 5 -3 100 -7 211 -9z"/>
</g>
</svg>
