<svg width="108" height="108" viewBox="0 0 108 108" fill="none" xmlns="http://www.w3.org/2000/svg">
<circle cx="54" cy="54" r="54" fill="#14172D"/>
<g clip-path="url(#clip0_176_684)">
<path d="M85 62.6432C83.763 62.9072 82.6114 62.9395 81.4651 62.8271C79.1849 62.6023 77.0842 61.8666 75.2554 60.5416C74.0327 59.656 72.8953 58.658 71.7312 57.6991C70.9687 57.0724 70.2365 56.4133 69.467 55.7934C69.3443 55.6946 69.0511 55.6469 68.9231 55.7184C68.3278 56.0522 67.7608 56.432 67.1868 56.7999C66.8598 57.0094 66.7709 57.3108 66.7745 57.6787C66.7887 59.2217 66.7709 60.7664 66.7887 62.3094C66.7922 62.6585 66.6856 62.7863 66.3159 62.7777C65.5073 62.759 64.6987 62.7726 63.8011 62.7726C63.9256 62.6211 63.986 62.5325 64.0606 62.4576C64.4178 62.1033 64.5867 61.6878 64.5849 61.1922C64.5796 56.3349 64.5796 51.4777 64.5831 46.6205C64.5831 46.004 64.2632 45.5578 63.7105 45.149C63.9007 45.1269 63.9966 45.1064 64.0908 45.1064C66.8118 45.1081 69.5327 45.1047 72.2554 45.1201C73.7341 45.1286 75.1843 45.3296 76.4817 46.05C78.0208 46.9032 78.8437 48.1754 78.7743 49.9296C78.7246 51.1678 78.4562 52.3122 77.4841 53.2132C76.6274 54.0068 75.5504 54.2538 74.4148 54.3747C73.5493 54.4666 72.6891 54.5859 71.8271 54.7C71.7187 54.7136 71.6174 54.7698 71.4788 54.8175C71.5552 54.9197 71.5925 55.0014 71.6565 55.0491C72.9823 56.0659 74.3295 57.0554 75.634 58.0959C78.2465 60.1805 81.2518 61.5089 84.497 62.3894C84.5966 62.4167 84.6908 62.4593 84.7832 62.5018C84.8294 62.5223 84.872 62.558 85 62.6432ZM66.8491 56.6653C66.9735 56.6091 67.0482 56.5938 67.0979 56.5512C67.9634 55.8172 68.9729 55.3097 70.0463 54.9401C71.3366 54.4973 72.666 54.1618 73.9616 53.7343C75.2288 53.3171 76.2684 52.6052 76.4302 51.2274C76.5368 50.3213 76.5155 49.3846 76.4053 48.4769C76.3395 47.9251 76.0836 47.3494 75.7619 46.8811C74.9657 45.723 73.7128 45.3636 72.3372 45.3483C70.6524 45.3296 68.9676 45.35 67.2827 45.3347C66.8935 45.3313 66.7727 45.4624 66.7727 45.8286C66.7833 49.2824 66.778 52.7346 66.7816 56.1885C66.7833 56.3366 66.8224 56.4814 66.8491 56.6653Z" fill="white"/>
<path d="M53.3724 44.9996C58.29 44.9468 62.7633 48.8537 62.7455 53.997C62.7277 58.9888 58.5814 62.9348 53.4346 62.9978C48.2539 63.0626 44.0028 58.9104 44.0117 53.9732C44.0206 49.0376 48.2486 44.9859 53.3724 44.9996ZM60.5311 53.544C60.4671 53.1114 60.3907 52.2513 60.2094 51.41C59.8308 49.6575 59.0631 48.0839 57.6697 46.8406C55.5886 44.9842 52.7361 44.63 50.248 45.955C48.4032 46.9377 47.328 48.525 46.7042 50.4018C46.0715 52.3041 45.9524 54.2439 46.3505 56.2178C46.6544 57.7166 47.2036 59.1046 48.1953 60.3036C49.3754 61.7307 50.9038 62.6453 52.8161 62.7799C55.1603 62.9433 57.0548 62.0373 58.4748 60.2661C59.957 58.4148 60.4706 56.2604 60.5311 53.544Z" fill="white"/>
<path d="M28.029 45.1865C27.1706 45.7315 27.0853 46.457 27.0853 47.237C27.0942 52.1232 27.0888 57.0094 27.0906 61.8973C27.0906 62.633 27.0924 62.6398 27.8424 62.6296C29.1433 62.6126 30.4496 62.6552 31.7416 62.5462C33.5135 62.3946 35.0544 61.6691 36.3607 60.5041C36.4122 60.4582 36.4708 60.419 36.6237 60.2998C36.5544 60.4854 36.5348 60.5689 36.4957 60.6438C36.1652 61.2603 35.8541 61.8871 35.4863 62.4814C35.3796 62.6535 35.1113 62.8408 34.914 62.8408C31.3346 62.8595 27.7553 62.851 24.1759 62.8476C24.1368 62.8476 24.0977 62.8306 24.0124 62.8101C24.1297 62.7045 24.2239 62.6245 24.3128 62.5393C24.6985 62.1766 24.9153 61.744 24.9153 61.216C24.9135 56.3997 24.9153 51.5833 24.9117 46.767C24.9117 46.1283 24.6203 45.6242 24 45.1865C25.3614 45.1865 26.625 45.1865 28.029 45.1865Z" fill="white"/>
<path d="M39.2042 45.1289C40.4323 45.1289 41.6586 45.1289 42.9631 45.1289C42.7516 45.3622 42.5223 45.5155 42.4494 45.7216C42.3001 46.1405 42.1473 46.5885 42.1455 47.0244C42.1242 51.6977 42.1366 56.371 42.1278 61.046C42.126 61.7494 42.3641 62.337 43.027 62.8496C41.6515 62.8496 40.4056 62.8496 39.0425 62.8496C39.9969 62.1786 39.9684 61.2759 39.9666 60.3614C39.956 55.9708 39.956 51.5802 39.9702 47.1896C39.9702 46.4181 39.8387 45.725 39.2042 45.1289Z" fill="white"/>
<path d="M83.8466 61.0614C83.1055 60.8008 82.4674 60.5981 81.8543 60.3427C81.7477 60.2984 81.6979 60.0276 81.6979 59.8624C81.6855 58.2768 81.6908 56.6912 81.6908 55.1057C81.6908 52.6277 81.6943 50.1514 81.6943 47.6734C81.6943 46.2632 81.6943 46.2632 80.8964 45.1357C82.1546 45.1357 83.3827 45.1357 84.7139 45.1357C84.5592 45.2839 84.4473 45.381 84.3495 45.4883C83.9941 45.8783 83.8412 46.3347 83.8412 46.8542C83.8466 51.2992 83.8466 55.7443 83.8466 60.1894C83.8466 60.4363 83.8466 60.685 83.8466 61.0614Z" fill="white"/>
</g>
<defs>
<clipPath id="clip0_176_684">
<rect width="61" height="18" fill="white" transform="translate(24 45)"/>
</clipPath>
</defs>
</svg>
